<svg width="65" height="65" viewBox="0 0 65 65" fill="none" xmlns="http://www.w3.org/2000/svg">
<path d="M32.4999 9.75C30.776 9.75 29.1227 10.4348 27.9038 11.6538C26.6848 12.8728 25.9999 14.5261 25.9999 16.25C25.9999 17.9739 26.6848 19.6272 27.9038 20.8462C29.1227 22.0652 30.776 22.75 32.4999 22.75C34.2239 22.75 35.8772 22.0652 37.0961 20.8462C38.3151 19.6272 38.9999 17.9739 38.9999 16.25C38.9999 14.5261 38.3151 12.8728 37.0961 11.6538C35.8772 10.4348 34.2239 9.75 32.4999 9.75ZM22.7499 16.25C22.7499 13.6641 23.7772 11.1842 25.6057 9.35571C27.4341 7.52723 29.9141 6.5 32.4999 6.5C35.0858 6.5 37.5658 7.52723 39.3942 9.35571C41.2227 11.1842 42.2499 13.6641 42.2499 16.25C42.2499 18.8359 41.2227 21.3158 39.3942 23.1443C37.5658 24.9728 35.0858 26 32.4999 26C29.9141 26 27.4341 24.9728 25.6057 23.1443C23.7772 21.3158 22.7499 18.8359 22.7499 16.25ZM16.4222 32.487C16.3117 33.0157 16.2564 33.5617 16.2564 34.125V35.8963L7.7057 38.1875C7.28941 38.2987 6.93435 38.5708 6.71859 38.9438C6.50284 39.3168 6.44407 39.7602 6.5552 40.1765L8.65795 48.0253C9.27488 50.3239 10.7113 52.3175 12.6964 53.6303C14.6815 54.9431 17.0783 55.4845 19.4349 55.1525C20.1824 56.16 21.0437 57.083 21.9992 57.8922L21.4434 58.0548C19.7943 58.4971 18.0742 58.6103 16.3813 58.3878C14.6884 58.1653 13.0559 57.6115 11.5771 56.758C10.0983 55.9045 8.80208 54.768 7.76253 53.4135C6.72297 52.059 5.96043 50.513 5.51845 48.8637L3.4157 41.015C3.25008 40.3966 3.2079 39.7516 3.29156 39.1168C3.37522 38.4821 3.58309 37.8701 3.90329 37.3157C4.22349 36.7613 4.64976 36.2754 5.15775 35.8857C5.66574 35.4961 6.24551 35.2103 6.86395 35.0447L16.4222 32.487ZM48.7564 35.8963V34.125C48.7543 33.5617 48.7001 33.0157 48.5939 32.487L58.1489 35.048C59.3973 35.3831 60.4615 36.2003 61.1076 37.3198C61.7536 38.4394 61.9285 39.7697 61.5939 41.0183L59.4912 48.867C59.0366 50.5629 58.2431 52.1492 57.1586 53.5301C56.0741 54.911 54.7212 56.0579 53.1814 56.9016C51.6415 57.7453 49.9468 58.2684 48.1993 58.4392C46.4518 58.61 44.6878 58.4251 43.0137 57.8955C43.9735 57.0808 44.8283 56.1676 45.5779 55.1558C47.9346 55.4868 50.3309 54.9445 52.3154 53.6311C54.2999 52.3177 55.7355 50.3238 56.3517 48.0253L58.4577 40.1765C58.5688 39.7602 58.5101 39.3168 58.2943 38.9438C58.0785 38.5708 57.7235 38.2987 57.3072 38.1875L48.7564 35.8963ZM48.7499 21.125C48.7499 19.8321 49.2636 18.5921 50.1778 17.6779C51.092 16.7636 52.332 16.25 53.6249 16.25C54.9179 16.25 56.1579 16.7636 57.0721 17.6779C57.9863 18.5921 58.4999 19.8321 58.4999 21.125C58.4999 22.4179 57.9863 23.6579 57.0721 24.5721C56.1579 25.4864 54.9179 26 53.6249 26C52.332 26 51.092 25.4864 50.1778 24.5721C49.2636 23.6579 48.7499 22.4179 48.7499 21.125ZM53.6249 13C51.4701 13 49.4034 13.856 47.8797 15.3798C46.356 16.9035 45.4999 18.9701 45.4999 21.125C45.4999 23.2799 46.356 25.3465 47.8797 26.8702C49.4034 28.394 51.4701 29.25 53.6249 29.25C55.7798 29.25 57.8465 28.394 59.3702 26.8702C60.8939 25.3465 61.7499 23.2799 61.7499 21.125C61.7499 18.9701 60.8939 16.9035 59.3702 15.3798C57.8465 13.856 55.7798 13 53.6249 13ZM11.3749 16.25C10.082 16.25 8.84204 16.7636 7.9278 17.6779C7.01356 18.5921 6.49995 19.8321 6.49995 21.125C6.49995 22.4179 7.01356 23.6579 7.9278 24.5721C8.84204 25.4864 10.082 26 11.3749 26C12.6679 26 13.9079 25.4864 14.8221 24.5721C15.7363 23.6579 16.2499 22.4179 16.2499 21.125C16.2499 19.8321 15.7363 18.5921 14.8221 17.6779C13.9079 16.7636 12.6679 16.25 11.3749 16.25ZM3.24995 21.125C3.24995 18.9701 4.10597 16.9035 5.62971 15.3798C7.15344 13.856 9.22006 13 11.3749 13C13.5298 13 15.5965 13.856 17.1202 15.3798C18.6439 16.9035 19.4999 18.9701 19.4999 21.125C19.4999 23.2799 18.6439 25.3465 17.1202 26.8702C15.5965 28.394 13.5298 29.25 11.3749 29.25C9.22006 29.25 7.15344 28.394 5.62971 26.8702C4.10597 25.3465 3.24995 23.2799 3.24995 21.125ZM24.3749 29.25C23.082 29.25 21.842 29.7636 20.9278 30.6779C20.0136 31.5921 19.4999 32.8321 19.4999 34.125V45.5C19.4999 48.9478 20.8696 52.2544 23.3076 54.6924C25.7455 57.1304 29.0521 58.5 32.4999 58.5C35.9478 58.5 39.2544 57.1304 41.6923 54.6924C44.1303 52.2544 45.4999 48.9478 45.4999 45.5V34.125C45.4999 32.8321 44.9863 31.5921 44.0721 30.6779C43.1579 29.7636 41.9179 29.25 40.6249 29.25H24.3749ZM22.7499 34.125C22.7499 33.694 22.9212 33.2807 23.2259 32.976C23.5306 32.6712 23.944 32.5 24.3749 32.5H40.6249C41.0559 32.5 41.4693 32.6712 41.774 32.976C42.0787 33.2807 42.2499 33.694 42.2499 34.125V45.5C42.2499 48.0859 41.2227 50.5658 39.3942 52.3943C37.5658 54.2228 35.0858 55.25 32.4999 55.25C29.9141 55.25 27.4341 54.2228 25.6057 52.3943C23.7772 50.5658 22.7499 48.0859 22.7499 45.5V34.125Z" fill="black"/>
</svg>
