<svg width="65" height="65" viewBox="0 0 65 65" fill="none" xmlns="http://www.w3.org/2000/svg">
<path d="M47.4435 23.985C47.7481 23.6803 47.9192 23.267 47.9192 22.8361C47.9192 22.4053 47.7481 21.992 47.4435 21.6873L43.3062 17.55C43.1563 17.3948 42.977 17.271 42.7787 17.1859C42.5805 17.1007 42.3672 17.0559 42.1515 17.054C41.9357 17.0521 41.7217 17.0932 41.522 17.1749C41.3223 17.2566 41.1409 17.3773 40.9883 17.5299C40.8357 17.6825 40.7151 17.8639 40.6334 18.0636C40.5517 18.2633 40.5105 18.4773 40.5124 18.693C40.5143 18.9088 40.5591 19.122 40.6443 19.3203C40.7295 19.5186 40.8532 19.6979 41.0085 19.8478L45.1425 23.985C45.4472 24.2897 45.8604 24.4608 46.2913 24.4608C46.7222 24.4608 47.1387 24.2897 47.4435 23.985ZM25.3825 43.7483C25.5333 43.8994 25.653 44.0787 25.7345 44.276C25.8161 44.4733 25.858 44.6848 25.8579 44.8983C25.8577 45.1118 25.8155 45.3232 25.7337 45.5204C25.6518 45.7176 25.5319 45.8968 25.3808 46.0476C25.2297 46.1985 25.0504 46.3182 24.8531 46.3997C24.6558 46.4813 24.4443 46.5232 24.2308 46.5231C24.0173 46.5229 23.8059 46.4807 23.6087 46.3988C23.4115 46.317 23.2323 46.1971 23.0815 46.046L18.9475 41.912C18.6423 41.6073 18.4707 41.1939 18.4704 40.7627C18.4703 40.5492 18.5122 40.3377 18.5937 40.1404C18.6753 39.9431 18.795 39.7637 18.9458 39.6126C19.0967 39.4616 19.2759 39.3417 19.4731 39.2598C19.6703 39.178 19.8817 39.1358 20.0952 39.1356C20.5264 39.1353 20.9401 39.3063 21.2452 39.611L25.3825 43.7483ZM55.7992 9.25277C54.9057 8.35949 53.694 7.85767 52.4306 7.85767C51.1671 7.85767 49.9554 8.35949 49.062 9.25277L47.047 11.2678L46.2507 10.4748C45.6227 9.84638 44.8632 9.36513 44.0268 9.06568C43.1904 8.76624 42.298 8.65607 41.4139 8.74312C40.5298 8.83016 39.676 9.11224 38.9141 9.56905C38.1522 10.0258 37.5011 10.646 37.0077 11.3848C35.4484 11.0462 33.8214 11.2217 32.3701 11.8849C30.9188 12.5481 29.7213 13.6633 28.9566 15.0638C28.192 16.4643 27.9014 18.0748 28.1282 19.6542C28.3551 21.2336 29.0873 22.6971 30.2152 23.8258L32.3537 25.961L25.9545 32.3603L23.816 30.2218C22.6873 29.0938 21.2238 28.3617 19.6444 28.1348C18.0649 27.9079 16.4545 28.1986 15.054 28.9632C13.6535 29.7278 12.5383 30.9254 11.8751 32.3767C11.2119 33.828 11.0364 35.455 11.375 37.0143C10.6381 37.5092 10.0198 38.1609 9.56438 38.9228C9.10897 39.6847 8.8277 40.5379 8.74073 41.4212C8.65376 42.3046 8.76324 43.1962 9.06133 44.0323C9.35942 44.8684 9.83874 45.6282 10.465 46.2573L11.2612 47.0535L9.19095 49.1238C8.29668 50.0168 7.79376 51.2284 7.79285 52.4922C7.79193 53.756 8.29309 54.9684 9.18608 55.8626C10.0791 56.7569 11.2907 57.2598 12.5545 57.2608C13.8183 57.2617 15.0307 56.7605 15.925 55.8675L17.9985 53.794L18.7915 54.587C19.4194 55.2154 20.179 55.6967 21.0153 55.9961C21.8517 56.2955 22.7441 56.4057 23.6282 56.3187C24.5123 56.2316 25.3661 55.9495 26.128 55.4927C26.89 55.0359 27.5411 54.4158 28.0345 53.677C29.5938 54.0156 31.2208 53.8401 32.6721 53.1769C34.1233 52.5137 35.3209 51.3984 36.0855 49.998C36.8502 48.5975 37.1408 46.987 36.9139 45.4076C36.6871 43.8282 35.9549 42.3647 34.827 41.236L32.6885 39.1008L39.0877 32.7048L41.2262 34.84C42.3551 35.9664 43.8183 36.6973 45.3969 36.9233C46.9756 37.1494 48.585 36.8584 49.9847 36.0941C51.3844 35.3297 52.4991 34.1329 53.1622 32.6825C53.8254 31.2322 54.0014 29.6062 53.6639 28.0475C53.9889 27.8309 54.2923 27.5817 54.574 27.3C55.6992 26.1728 56.3312 24.6451 56.3312 23.0523C56.3312 21.4595 55.6992 19.9318 54.574 18.8045L53.781 18.0115L55.7959 15.9965C56.687 15.1012 57.1873 13.8895 57.1873 12.6263C57.1873 11.3631 56.687 10.1513 55.7959 9.25602M51.48 15.7105L49.3415 13.5655L51.3565 11.5505C51.4973 11.4099 51.6645 11.2984 51.8484 11.2224C52.0323 11.1463 52.2294 11.1073 52.4285 11.1074C52.6275 11.1076 52.8246 11.1469 53.0084 11.2232C53.1922 11.2995 53.3592 11.4113 53.4998 11.5521C53.6405 11.693 53.752 11.8602 53.828 12.0441C53.904 12.228 53.9431 12.4251 53.9429 12.6242C53.9428 12.8232 53.9034 13.0203 53.8271 13.2041C53.7508 13.3879 53.639 13.5549 53.4982 13.6955L51.48 15.7105ZM36.79 30.4005L30.3907 36.7998L28.249 34.658L34.6482 28.262L36.79 30.4005ZM15.6975 51.493L13.6272 53.5633C13.3432 53.8477 12.9578 54.0077 12.5559 54.008C12.1539 54.0083 11.7683 53.8489 11.4838 53.5649C11.1994 53.2809 11.0394 52.8955 11.0391 52.4935C11.0388 52.0916 11.1982 51.706 11.4822 51.4215L13.559 49.3513L15.6975 51.493ZM40.053 12.7725C40.5707 12.2565 41.2719 11.9668 42.003 11.9668C42.734 11.9668 43.4352 12.2565 43.953 12.7725L52.2795 21.099C52.6144 21.432 52.8582 21.8455 52.9874 22.2998C53.1166 22.7541 53.1269 23.234 53.0173 23.6934C52.9076 24.1528 52.6818 24.5763 52.3613 24.9233C52.0409 25.2704 51.6367 25.5292 51.1875 25.675C50.9698 25.7459 50.7696 25.862 50.6 26.0156C50.4303 26.1693 50.295 26.357 50.203 26.5666C50.1109 26.7762 50.0642 27.0028 50.0658 27.2317C50.0675 27.4606 50.1174 27.6865 50.2125 27.8948C50.615 28.7766 50.6952 29.7717 50.439 30.7066C50.1827 31.6415 49.6064 32.4567 48.8104 33.01C48.0145 33.5633 47.0496 33.8196 46.084 33.7341C45.1184 33.6486 44.2135 33.2268 43.5272 32.5423L32.5097 21.528C31.8252 20.8417 31.4033 19.9368 31.3179 18.9712C31.2324 18.0056 31.4886 17.0407 32.042 16.2448C32.5953 15.4489 33.4105 14.8725 34.3454 14.6163C35.2802 14.36 36.2754 14.4402 37.1572 14.8428C37.3656 14.9384 37.5918 14.9888 37.8211 14.9907C38.0504 14.9926 38.2774 14.946 38.4874 14.8539C38.6974 14.7618 38.8855 14.6263 39.0393 14.4564C39.1932 14.2864 39.3094 14.0858 39.3802 13.8678C39.5145 13.4555 39.7452 13.0779 40.053 12.7725ZM15.6682 32.5228C16.444 31.7472 17.4962 31.3115 18.5932 31.3115C19.6902 31.3115 20.7424 31.7472 21.5182 32.5228L32.5325 43.537C33.217 44.2233 33.6388 45.1283 33.7243 46.0938C33.8098 47.0594 33.5535 48.0243 33.0002 48.8203C32.4469 49.6162 31.6317 50.1925 30.6968 50.4488C29.7619 50.705 28.7668 50.6248 27.885 50.2223C27.6767 50.1272 27.4508 50.0773 27.2219 50.0756C26.993 50.074 26.7664 50.1207 26.5568 50.2128C26.3472 50.3048 26.1595 50.4401 26.0058 50.6098C25.8522 50.7794 25.7361 50.9796 25.6652 51.1973C25.5188 51.6453 25.2601 52.0482 24.9136 52.3677C24.5671 52.6872 24.1444 52.9124 23.686 53.022C23.2276 53.1315 22.7488 53.1217 22.2953 52.9934C21.8418 52.8651 21.4288 52.6227 21.0957 52.2893L12.766 43.9628C12.4325 43.6297 12.1901 43.2167 12.0618 42.7632C11.9335 42.3097 11.9237 41.8308 12.0333 41.3724C12.1428 40.9141 12.3681 40.4914 12.6875 40.1449C13.007 39.7984 13.41 39.5396 13.858 39.3933C14.076 39.3224 14.2766 39.2063 14.4466 39.0524C14.6165 38.8985 14.752 38.7104 14.8441 38.5005C14.9362 38.2905 14.9828 38.0634 14.9809 37.8342C14.9789 37.6049 14.9285 37.3787 14.833 37.1703C14.4801 36.4032 14.371 35.5463 14.5203 34.7153C14.6697 33.8842 15.0703 33.119 15.6682 32.5228Z" fill="black"/>
</svg>
