<svg width="65" height="65" viewBox="0 0 65 65" fill="none" xmlns="http://www.w3.org/2000/svg">
<path d="M21.6667 43.3334V29.7917M32.5 43.3334V21.6667M43.3334 43.3334V37.9167M48.75 10.8334H16.25C14.8135 10.8334 13.4357 11.4041 12.4199 12.4199C11.4041 13.4357 10.8334 14.8135 10.8334 16.25V48.75C10.8334 50.1866 11.4041 51.5644 12.4199 52.5802C13.4357 53.596 14.8135 54.1667 16.25 54.1667H48.75C50.1866 54.1667 51.5644 53.596 52.5802 52.5802C53.596 51.5644 54.1667 50.1866 54.1667 48.75V16.25C54.1667 14.8135 53.596 13.4357 52.5802 12.4199C51.5644 11.4041 50.1866 10.8334 48.75 10.8334Z" stroke="black" stroke-width="2" stroke-linecap="round" stroke-linejoin="round"/>
</svg>
