<svg width="65" height="65" viewBox="0 0 65 65" fill="none" xmlns="http://www.w3.org/2000/svg">
<path d="M18.9579 26.026L16.3852 14.7056C16.2114 13.9151 16.2169 13.0956 16.4014 12.3074C16.5859 11.5193 16.9446 10.7825 17.4513 10.1513C17.958 9.52 18.5997 9.01032 19.3292 8.65967C20.0588 8.30902 20.8577 8.12633 21.6671 8.12502H43.3329C44.1537 8.10581 44.9681 8.27342 45.7146 8.61518C46.4611 8.95694 47.1202 9.46391 47.642 10.0978C48.1638 10.7317 48.5347 11.4758 48.7266 12.2741C48.9186 13.0724 48.9266 13.9038 48.75 14.7056L46.0421 26.0806M24.375 46.0421H40.625" stroke="#344054" stroke-linecap="round" stroke-linejoin="round"/>
<path d="M46.5296 56.875H18.4704C17.5455 56.881 16.6345 56.6503 15.824 56.2047C15.0135 55.7592 14.3304 55.1137 13.8398 54.3296C11.8932 51.0396 10.8518 47.2932 10.8212 43.4705C10.7907 39.6479 11.772 35.8853 13.6657 32.5646C15.5594 29.2438 18.298 26.4833 21.6035 24.5631C24.9089 22.6429 28.6636 21.6315 32.4864 21.6315C36.3091 21.6315 40.0638 22.6429 43.3692 24.5631C46.6747 26.4833 49.4133 29.2438 51.307 32.5646C53.2007 35.8853 54.182 39.6479 54.1515 43.4705C54.1209 47.2932 53.0795 51.0396 51.1329 54.3296C50.6447 55.1098 49.966 55.7528 49.1607 56.1981C48.3553 56.6434 47.4499 56.8764 46.5296 56.875Z" stroke="#306CFE" stroke-linecap="round" stroke-linejoin="round"/>
</svg>
