<svg width="65" height="65" viewBox="0 0 65 65" fill="none" xmlns="http://www.w3.org/2000/svg">
<path d="M32.5 13.5417C29.4937 13.5417 27.0833 15.9521 27.0833 18.9584C27.0833 21.9646 29.4937 24.375 32.5 24.375C35.5062 24.375 37.9166 21.9646 37.9166 18.9584C37.9166 15.9521 35.5062 13.5417 32.5 13.5417ZM59.5833 2.70837V16.25H54.1666V10.8334H10.8333V16.25H5.41663V2.70837H10.8333V8.12504H54.1666V2.70837H59.5833ZM40.625 30.4959V62.2917H35.2083V48.75H29.7916V62.2917H24.375V30.4959C18.7687 27.5438 14.8958 21.6667 14.8958 14.8959V13.5417H20.3125V14.8959C20.3125 21.6667 25.7291 27.0834 32.5 27.0834C39.2708 27.0834 44.6875 21.6667 44.6875 14.8959V13.5417H50.1041V14.8959C50.1041 21.6667 46.2312 27.5438 40.625 30.4959Z" fill="black"/>
</svg>
